<?xml version="1.0" encoding="UTF-8" standalone="no"?> <svg xmlns="http://www.w3.org/2000/svg" viewBox="0 0 64 64"><g id="solid"><path d="M44.963,32A13.005,13.005,0,0,0,33.521,20.089c-.174-.02-.347-.017-.521-.03V22H31V20.039a13,13,0,0,0-11.91,11.44c-.021.174-.022.347-.036.521H21v2H19.037A13.005,13.005,0,0,0,30.479,45.911c.174.02.347.022.521.036V44h2v1.964A13,13,0,0,0,44.91,34.521c.021-.174.022-.347.036-.521H43V32ZM33,33a1,1,0,0,1-.293.707l-4,4a1,1,0,0,1-1.414-1.414L31,32.586V25a1,1,0,0,1,2,0Z"/><path d="M32,16A17,17,0,1,0,49,33,17.019,17.019,0,0,0,32,16Zm9.292,28.775A14.883,14.883,0,0,1,32.029,48a15.341,15.341,0,0,1-1.785-.105,15,15,0,1,1,11.048-3.122Z"/><path d="M58.689,14.04A3.973,3.973,0,0,0,55.6,13.019a4.149,4.149,0,0,0-3.6,4.2V19a4,4,0,0,0,2.4,3.662,1,1,0,0,1,.6.916V43a1,1,0,0,0,2,0V23.578a1,1,0,0,1,.6-.916A4,4,0,0,0,60,19V17A4.005,4.005,0,0,0,58.689,14.04Zm-1.516,7.422-.658.395-1.03-1.714.659-.395a2.213,2.213,0,0,0,0-3.5l-.659-.395,1.03-1.714.658.395A4,4,0,0,1,59,18,4,4,0,0,1,57.173,21.462Z"/><path d="M4,13H5v6a1,1,0,0,0,2,0V13H9v6a1,1,0,0,0,2,0V13h1v5.4a5.724,5.724,0,0,1-2.555,4.773A1,1,0,0,0,9,24V43a1,1,0,0,1-2,0V24a1,1,0,0,0-.445-.832A5.724,5.724,0,0,1,4,18.4Z"/></g></svg>
